<svg width="30" height="29" viewBox="0 0 30 29" fill="none" xmlns="http://www.w3.org/2000/svg">
<path fill-rule="evenodd" clip-rule="evenodd" d="M6.18661 11.9956L13.7628 4.4195L14.7056 5.3623L7.12942 12.9384L6.18661 11.9956Z" fill="black"/>
<path fill-rule="evenodd" clip-rule="evenodd" d="M8.70077 14.5097L16.2769 6.93353L17.2197 7.87634L9.64358 15.4525L8.70077 14.5097Z" fill="black"/>
<path fill-rule="evenodd" clip-rule="evenodd" d="M14.0433 19.8523L21.6194 12.2762L22.5623 13.219L14.9861 20.7951L14.0433 19.8523Z" fill="black"/>
<path fill-rule="evenodd" clip-rule="evenodd" d="M16.5575 22.3664L24.1336 14.7902L25.0764 15.733L17.5003 23.3092L16.5575 22.3664Z" fill="black"/>
<path fill-rule="evenodd" clip-rule="evenodd" d="M16.5574 22.3665C13.9423 24.9816 9.71178 24.991 7.10829 22.3875C4.50479 19.7841 4.51421 15.5535 7.12933 12.9384L6.18652 11.9956C3.04838 15.1337 3.03708 20.2104 6.16127 23.3346C9.28546 26.4588 14.3621 26.4475 17.5002 23.3093L16.5574 22.3665Z" fill="black"/>
<path fill-rule="evenodd" clip-rule="evenodd" d="M21.6195 12.2762L22.5623 13.219C25.003 10.7782 25.0118 6.8297 22.5819 4.39978C20.152 1.96985 16.2035 1.97864 13.7627 4.41942L14.7055 5.36223C16.6233 3.44447 19.7257 3.43756 21.6349 5.34679C23.5441 7.25602 23.5372 10.3584 21.6195 12.2762Z" fill="black"/>
<path fill-rule="evenodd" clip-rule="evenodd" d="M8.70093 14.51C6.95752 16.2534 6.95123 19.0738 8.6869 20.8094C10.4226 22.5451 13.2429 22.5388 14.9863 20.7954L14.0435 19.8526C12.8231 21.073 10.8489 21.0774 9.63392 19.8624C8.41895 18.6475 8.42335 16.6732 9.64374 15.4528L8.70093 14.51Z" fill="black"/>
</svg>
